<svg width="276" height="44" viewBox="0 0 276 44" fill="none" xmlns="http://www.w3.org/2000/svg">
<rect width="276" height="44" fill="#2D2D2D"/>
<circle cx="26" cy="13" r="2" fill="#3A4870"/>
<circle cx="26" cy="21" r="2" fill="#3A4870"/>
<circle cx="26" cy="29" r="2" fill="#3A4870"/>
<circle cx="34" cy="13" r="2" fill="#3A4870"/>
<circle cx="34" cy="21" r="2" fill="#3A4870"/>
<circle cx="34" cy="29" r="2" fill="#3A4870"/>
<circle cx="42" cy="13" r="2" fill="#3A4870"/>
<circle cx="42" cy="21" r="2" fill="#3A4870"/>
<circle cx="42" cy="29" r="4" fill="#818CF8"/>
<path d="M59.7713 30H56.4759L61.4972 15.4545H65.4602L70.4744 30H67.179L66.0994 26.6832H60.8509L59.7713 30ZM61.6321 24.2827H65.3253L63.5355 18.7784H63.4219L61.6321 24.2827ZM75.1939 23.6932V30H72.1683V19.0909H75.0518V21.0156H75.1797C75.6697 19.7443 76.8416 18.9489 78.4609 18.9489C80.7337 18.9489 82.2251 20.5114 82.2251 23.054V30H79.1996V23.5938C79.2067 22.2585 78.4751 21.4631 77.2607 21.4631C76.0391 21.4631 75.201 22.2869 75.1939 23.6932ZM89.5387 30.2131C86.229 30.2131 84.1694 27.9474 84.1694 24.5881C84.1694 21.2074 86.229 18.9489 89.5387 18.9489C92.8484 18.9489 94.908 21.2074 94.908 24.5881C94.908 27.9474 92.8484 30.2131 89.5387 30.2131ZM89.5529 27.8693C91.0515 27.8693 91.8327 26.4702 91.8327 24.5668C91.8327 22.6634 91.0515 21.2571 89.5529 21.2571C88.0259 21.2571 87.2447 22.6634 87.2447 24.5668C87.2447 26.4702 88.0259 27.8693 89.5529 27.8693ZM96.8754 30V19.0909H99.7589V21.0156H99.8867C100.341 19.7301 101.456 18.9489 102.926 18.9489C104.425 18.9489 105.54 19.7514 105.888 21.0156H106.002C106.449 19.7656 107.692 18.9489 109.29 18.9489C111.321 18.9489 112.728 20.2983 112.728 22.6634V30H109.709V23.2599C109.709 22.0455 108.985 21.4418 108.019 21.4418C106.918 21.4418 106.272 22.2088 106.272 23.3381V30H103.338V23.196C103.338 22.1236 102.671 21.4418 101.676 21.4418C100.668 21.4418 99.9009 22.2443 99.9009 23.4517V30H96.8754ZM118.228 30.206C116.147 30.206 114.606 29.1122 114.606 26.9531C114.606 24.517 116.545 23.7926 118.704 23.5938C120.6 23.4091 121.346 23.3168 121.346 22.6136V22.571C121.346 21.6761 120.757 21.1577 119.727 21.1577C118.64 21.1577 117.994 21.6903 117.788 22.4148L114.99 22.1875C115.409 20.1989 117.127 18.9489 119.741 18.9489C122.17 18.9489 124.372 20.0426 124.372 22.642V30H121.502V28.4872H121.417C120.885 29.5028 119.841 30.206 118.228 30.206ZM119.095 28.1179C120.423 28.1179 121.368 27.2443 121.368 26.1009V24.9432C121.005 25.1847 119.926 25.3409 119.265 25.4332C118.2 25.5824 117.497 26.0014 117.497 26.8537C117.497 27.6847 118.164 28.1179 119.095 28.1179ZM129.745 15.4545V30H126.719V15.4545H129.745ZM134.036 34.0909C133.269 34.0909 132.566 33.9631 132.133 33.7784L132.815 31.5199C133.88 31.8466 134.64 31.7969 135.038 30.7741L135.215 30.3125L131.302 19.0909H134.484L136.742 27.1023H136.856L139.136 19.0909H142.339L138.099 31.179C137.481 32.9403 136.288 34.0909 134.036 34.0909Z" fill="#E8EEFF"/>
<path d="M143.938 30V15.4545H147.886V21.1364H153.114V15.4545H157.062V30H153.114V24.3182H147.886V30H143.938ZM166.068 25.2273V19.0909H169.989V30H166.267V27.9261H166.153C165.678 29.3182 164.428 30.142 162.801 30.142C160.507 30.142 159.001 28.4375 158.994 26.0511V19.0909H162.915V25.2273C162.922 26.3068 163.49 26.9602 164.477 26.9602C165.45 26.9602 166.075 26.3068 166.068 25.2273ZM175.903 23.8636V30H171.983V19.0909H175.704V21.1648H175.818C176.294 19.7869 177.565 18.9489 179.17 18.9489C181.485 18.9489 182.984 20.6676 182.977 23.0398V30H179.056V23.8636C179.064 22.7841 178.481 22.1307 177.494 22.1307C176.521 22.1307 175.91 22.7841 175.903 23.8636ZM191.418 19.0909V21.9318H189.543V26.4915C189.543 26.946 189.77 27.1733 190.282 27.1733C190.516 27.1733 190.9 27.0952 191.049 27.0597L191.617 29.8153C191.262 29.9219 190.601 30.1065 189.713 30.1562C187.007 30.3054 185.594 29.1477 185.623 26.8608V21.9318H184.23V19.0909H185.623V16.4773H189.543V19.0909H191.418ZM198.128 30.1989C194.634 30.1989 192.503 28.1037 192.503 24.5739C192.503 21.1932 194.662 18.9489 198.043 18.9489C201.338 18.9489 203.469 21.0724 203.469 24.5455V25.4545H196.366V25.625C196.366 26.6761 197.048 27.4432 198.213 27.4432C199.016 27.4432 199.662 27.0952 199.889 26.4773H203.469C203.099 28.75 201.153 30.1989 198.128 30.1989ZM196.366 23.2955H199.861C199.839 22.358 199.101 21.7045 198.128 21.7045C197.169 21.7045 196.388 22.3509 196.366 23.2955ZM205.069 30V19.0909H208.875V21.1648H208.989C209.387 19.6307 210.296 18.9489 211.461 18.9489C211.801 18.9489 212.142 19.0057 212.455 19.098V22.4432C212.064 22.3082 211.411 22.2443 211.006 22.2443C209.848 22.2443 208.989 23.0682 208.989 24.3182V30H205.069ZM223.712 22.642H220.104C220.047 21.9744 219.401 21.5625 218.627 21.5625C217.952 21.5625 217.391 21.8182 217.405 22.2727C217.391 22.5923 217.625 22.8906 218.456 23.0398L220.672 23.4375C222.902 23.8423 223.982 24.7798 223.996 26.392C223.982 28.7287 221.759 30.1989 218.74 30.1989C215.402 30.1989 213.471 28.7145 213.257 26.4773H217.15C217.256 27.1733 217.881 27.5568 218.769 27.5568C219.486 27.5568 220.005 27.3011 220.019 26.8466C220.005 26.4347 219.621 26.2074 218.769 26.0511L216.837 25.7102C214.614 25.3196 213.499 24.2188 213.513 22.5C213.499 20.2273 215.424 18.9489 218.542 18.9489C221.695 18.9489 223.613 20.3338 223.712 22.642Z" fill="#818CF8"/>
</svg>
