<svg width="24" height="24" viewBox="0 0 24 24" fill="none" xmlns="http://www.w3.org/2000/svg">
<path fill-rule="evenodd" clip-rule="evenodd" d="M15.999 1.09273C15.9982 1.09319 15.9974 1.09365 15.9965 1.09411C15.9369 1.12711 15.8821 1.16822 15.834 1.21648L4.1981 12.904C4.10066 13.0017 4.03562 13.1242 4.011 13.2565C3.98639 13.3887 4.00328 13.5249 4.05958 13.6481C4.11589 13.7714 4.20915 13.8764 4.32785 13.9501C4.44655 14.0239 4.5855 14.0632 4.72754 14.0631H9.56082L6.94127 22.111C6.8928 22.2594 6.89895 22.419 6.95871 22.5638C7.01848 22.7085 7.12834 22.8298 7.27038 22.908C7.41243 22.9861 7.57828 23.0165 7.74092 22.9941C7.90355 22.9717 8.05337 22.8979 8.16596 22.7847L19.8019 11.0972C19.8993 10.9995 19.9644 10.877 19.989 10.7448C20.0136 10.6125 19.9967 10.4763 19.9404 10.3531C19.8841 10.2298 19.7908 10.1248 19.6721 10.0511C19.5534 9.97732 19.4145 9.93805 19.2725 9.93811H14.4392L16.9249 2.30257L17.0587 1.89161C17.1072 1.74297 17.101 1.58317 17.041 1.43832C16.9811 1.29347 16.8709 1.17212 16.7286 1.09411V1.09273C16.5866 1.01491 16.4209 0.984779 16.2585 1.00725C16.1664 1.01999 16.0784 1.04921 15.999 1.09273ZM13.4839 6.41177L11.6848 11.9381H16.1425L10.5164 17.5892L12.3151 12.0631H7.85746L13.4839 6.41177Z" fill="#66aaff"/>
</svg>
