<svg width="24" height="24" viewBox="0 0 24 24" fill="none" xmlns="http://www.w3.org/2000/svg">
<path d="M12 2C13.6569 2 15 3.34315 15 5V13.002C16.212 13.9126 17 15.3637 17 17C17 19.7614 14.7614 22 12 22C9.23858 22 7.00001 19.7614 7 17C7 15.3637 7.78803 13.9126 9 13.002V5C9 3.34315 10.3431 2 12 2ZM12 4C11.4477 4 11 4.44772 11 5V13C11 13.6289 10.7088 14.189 10.2549 14.5557L10.2568 14.5576C9.49384 15.1035 9 15.9942 9 17C9.00001 18.6568 10.3431 20 12 20C13.6569 20 15 18.6568 15 17C15 15.9942 14.5062 15.1035 13.7432 14.5576L13.7441 14.5557C13.2905 14.189 13 13.6287 13 13V10C12.4477 10 12 9.55228 12 9C12 8.44772 12.4477 8 13 8V7C12.4477 7 12 6.55228 12 6C12 5.48232 12.3933 5.05621 12.8975 5.00488L13 5C13 4.44772 12.5523 4 12 4Z" fill="#51b3f3"/>
</svg>
